# This file uses centimeters as units for non-parametric coordinates.

mtllib S1banana.mtl
g default
v 0.771634 0.139148 -0.445503
v 0.445503 0.139148 -0.771634
v 0.000000 0.139148 -0.891007
v -0.445503 0.139148 -0.771634
v -0.771634 0.139148 -0.445503
v -0.891007 0.139148 0.000000
v -0.771634 0.139148 0.445503
v -0.445503 0.139148 0.771634
v 0.000000 0.139148 0.891007
v 0.445503 0.139148 0.771634
v 0.771634 0.139148 0.445503
v 0.891007 0.139148 0.000000
v 0.612372 0.392264 -0.353553
v 0.353553 0.392264 -0.612372
v 0.000000 0.392264 -0.707107
v -0.353553 0.392264 -0.612372
v -0.612372 0.392264 -0.353553
v -0.707107 0.392264 0.000000
v -0.612372 0.392264 0.353553
v -0.353553 0.392264 0.612372
v 0.000000 0.392264 0.707107
v 0.353553 0.392264 0.612372
v 0.612372 0.392264 0.353553
v 0.707107 0.392264 0.000000
v 0.393167 0.576164 -0.226995
v 0.226995 0.576164 -0.393167
v 0.000000 0.576164 -0.453991
v -0.226995 0.576164 -0.393167
v -0.393167 0.576164 -0.226995
v -0.453991 0.576164 0.000000
v -0.393167 0.576164 0.226995
v -0.226995 0.576164 0.393167
v 0.000000 0.576164 0.453991
v 0.226995 0.576164 0.393167
v 0.393167 0.576164 0.226995
v 0.453991 0.576164 0.000000
v 0.066876 0.672846 -0.038611
v 0.038611 0.672846 -0.066876
v 0.000000 0.672846 -0.077222
v -0.038611 0.672846 -0.066876
v -0.066876 0.672846 -0.038611
v -0.077222 0.672846 0.000000
v -0.066876 0.672846 0.038611
v -0.038611 0.672846 0.066876
v 0.000000 0.672846 0.077222
v 0.038611 0.672846 0.066876
v 0.066876 0.672846 0.038611
v 0.077222 0.672846 0.000000
v 0.000000 0.139148 0.000000
v 0.029725 1.161133 -0.017162
v 0.017162 1.161133 -0.029725
v 0.000000 1.190002 0.000000
v 0.000000 1.161133 -0.034324
v -0.017162 1.161133 -0.029725
v -0.029725 1.161133 -0.017162
v -0.034324 1.161133 0.000000
v -0.029725 1.161133 0.017162
v -0.017162 1.161133 0.029725
v 0.000000 1.161133 0.034324
v 0.017162 1.161133 0.029725
v 0.029725 1.161133 0.017162
v 0.034324 1.161133 0.000000
v 0.061451 1.014647 -0.035479
v 0.035479 1.014647 -0.061451
v 0.000000 1.014647 -0.070957
v -0.035479 1.014647 -0.061451
v -0.061451 1.014647 -0.035479
v -0.070957 1.014647 0.000000
v -0.061451 1.014647 0.035479
v -0.035479 1.014647 0.061451
v 0.000000 1.014647 0.070957
v 0.035479 1.014647 0.061451
v 0.061451 1.014647 0.035479
v 0.070957 1.014647 0.000000
v -0.327627 1.188011 0.034346
v -0.318120 1.188011 0.069825
v -0.385959 1.220865 0.051508
v -0.390557 1.220865 0.034346
v 0.309330 1.134554 0.035479
v 0.318836 1.134554 0.000000
v 0.404493 1.193381 0.000000
v 0.399894 1.193381 0.017162
v 0.116443 1.063064 0.035479
v 0.125949 1.063064 0.000000
v 0.086069 1.243099 0.000000
v 0.081471 1.243099 0.017162
v 0.212262 1.122084 0.004479
v 0.206510 1.263464 -0.048124
v 0.211109 1.259477 -0.064816
v 0.221769 1.113841 -0.030029
v -0.125105 1.052851 -0.031201
v -0.115598 1.056724 0.004065
v -0.095777 1.217547 -0.032023
v -0.100376 1.215673 -0.049082
v -0.200270 1.080874 -0.006236
v -0.200432 1.266313 -0.026356
v -0.195833 1.268165 -0.009294
v -0.190763 1.084701 0.029036
v -0.268095 1.138403 0.024454
v -0.287737 1.271902 0.024454
v -0.283138 1.271902 0.041616
v -0.258589 1.138403 0.059933
vt 0.000000 0.650000
vt 0.083333 0.650000
vt 0.166667 0.650000
vt 0.250000 0.650000
vt 0.333333 0.650000
vt 0.416667 0.650000
vt 0.500000 0.650000
vt 0.583333 0.650000
vt 0.666667 0.650000
vt 0.750000 0.650000
vt 0.833333 0.650000
vt 0.916667 0.650000
vt 1.000000 0.650000
vt 0.000000 0.750000
vt 0.083333 0.750000
vt 0.166667 0.750000
vt 0.250000 0.750000
vt 0.333333 0.750000
vt 0.416667 0.750000
vt 0.500000 0.750000
vt 0.583333 0.750000
vt 0.666667 0.750000
vt 0.750000 0.750000
vt 0.833333 0.750000
vt 0.916667 0.750000
vt 1.000000 0.750000
vt 0.000000 0.850000
vt 0.083333 0.850000
vt 0.166667 0.850000
vt 0.250000 0.850000
vt 0.333333 0.850000
vt 0.416667 0.850000
vt 0.500000 0.850000
vt 0.583333 0.850000
vt 0.666667 0.850000
vt 0.750000 0.850000
vt 0.833333 0.850000
vt 0.916667 0.850000
vt 1.000000 0.850000
vt 0.000000 0.950000
vt 0.083333 0.950000
vt 0.166667 0.950000
vt 0.250000 0.950000
vt 0.333333 0.950000
vt 0.416667 0.950000
vt 0.500000 0.950000
vt 0.583333 0.950000
vt 0.666667 0.950000
vt 0.750000 0.950000
vt 0.833333 0.950000
vt 0.916667 0.950000
vt 1.000000 0.950000
vt 0.041667 1.000000
vt 0.125000 1.000000
vt 0.208333 1.000000
vt 0.291667 1.000000
vt 0.375000 1.000000
vt 0.458333 1.000000
vt 0.541667 1.000000
vt 0.625000 1.000000
vt 0.708333 1.000000
vt 0.791667 1.000000
vt 0.875000 1.000000
vt 0.958333 1.000000
vt 0.666667 0.650000
vt 0.000000 0.950000
vt 0.083333 0.950000
vt 0.166667 0.950000
vt 0.250000 0.950000
vt 0.333333 0.950000
vt 0.416667 0.950000
vt 0.500000 0.950000
vt 0.583333 0.950000
vt 0.666667 0.950000
vt 0.750000 0.950000
vt 0.833333 0.950000
vt 0.916667 0.950000
vt 1.000000 0.950000
vt 1.000000 0.950000
vt 0.000000 0.950000
vt 0.083333 0.950000
vt 0.166667 0.950000
vt 0.250000 0.950000
vt 0.333333 0.950000
vt 0.416667 0.950000
vt 0.500000 0.950000
vt 0.583333 0.950000
vt 0.666667 0.950000
vt 0.750000 0.950000
vt 0.833333 0.950000
vt 0.916667 0.950000
vt 0.416667 0.950000
vt 0.500000 0.950000
vt 0.500000 0.950000
vt 0.416667 0.950000
vt 0.833333 0.950000
vt 0.916667 0.950000
vt 0.916667 0.950000
vt 0.833333 0.950000
vt 0.833333 0.950000
vt 0.916667 0.950000
vt 0.916667 0.950000
vt 0.833333 0.950000
vt 0.833333 0.950000
vt 0.833333 0.950000
vt 0.916667 0.950000
vt 0.916667 0.950000
vt 0.416667 0.950000
vt 0.500000 0.950000
vt 0.500000 0.950000
vt 0.416667 0.950000
vt 0.416667 0.950000
vt 0.416667 0.950000
vt 0.500000 0.950000
vt 0.500000 0.950000
vt 0.416667 0.950000
vt 0.416667 0.950000
vt 0.500000 0.950000
vt 0.500000 0.950000
vn 0.578798 0.574443 -0.578798
vn 0.529166 0.663300 -0.529166
vn 0.529166 0.663300 -0.529166
vn 0.578798 0.574443 -0.578798
vn 0.211855 0.574443 -0.790653
vn 0.193688 0.663300 -0.722854
vn 0.193688 0.663300 -0.722854
vn 0.211855 0.574443 -0.790653
vn -0.211855 0.574443 -0.790653
vn -0.193688 0.663300 -0.722854
vn -0.193688 0.663300 -0.722854
vn -0.211855 0.574443 -0.790653
vn -0.578798 0.574443 -0.578798
vn -0.529166 0.663300 -0.529166
vn -0.529166 0.663300 -0.529166
vn -0.578798 0.574443 -0.578798
vn -0.790653 0.574443 -0.211855
vn -0.722854 0.663300 -0.193688
vn -0.722854 0.663300 -0.193688
vn -0.790653 0.574443 -0.211855
vn -0.790653 0.574443 0.211855
vn -0.722854 0.663300 0.193688
vn -0.722854 0.663300 0.193688
vn -0.790653 0.574443 0.211855
vn -0.578798 0.574443 0.578798
vn -0.529166 0.663300 0.529166
vn -0.529166 0.663300 0.529166
vn -0.578798 0.574443 0.578798
vn -0.211855 0.574443 0.790653
vn -0.193688 0.663300 0.722854
vn -0.193688 0.663300 0.722854
vn -0.211855 0.574443 0.790653
vn 0.211855 0.574443 0.790653
vn 0.193688 0.663300 0.722854
vn 0.193688 0.663300 0.722854
vn 0.211855 0.574443 0.790653
vn 0.578798 0.574443 0.578798
vn 0.529166 0.663300 0.529166
vn 0.529166 0.663300 0.529166
vn 0.578798 0.574443 0.578798
vn 0.790653 0.574443 0.211855
vn 0.722854 0.663300 0.193688
vn 0.722854 0.663300 0.193688
vn 0.790653 0.574443 0.211855
vn 0.790653 0.574443 -0.211855
vn 0.722854 0.663300 -0.193688
vn 0.722854 0.663300 -0.193688
vn 0.790653 0.574443 -0.211855
vn 0.358972 0.861556 -0.358972
vn 0.358972 0.861556 -0.358972
vn 0.131393 0.861555 -0.490365
vn 0.131393 0.861555 -0.490365
vn -0.131393 0.861556 -0.490365
vn -0.131393 0.861556 -0.490365
vn -0.358972 0.861556 -0.358972
vn -0.358972 0.861556 -0.358972
vn -0.490365 0.861556 -0.131393
vn -0.490365 0.861556 -0.131393
vn -0.490365 0.861556 0.131393
vn -0.490365 0.861556 0.131393
vn -0.358972 0.861556 0.358972
vn -0.358972 0.861556 0.358972
vn -0.131393 0.861555 0.490365
vn -0.131393 0.861555 0.490365
vn 0.131393 0.861556 0.490365
vn 0.131393 0.861556 0.490365
vn 0.358972 0.861556 0.358972
vn 0.358972 0.861556 0.358972
vn 0.490365 0.861556 0.131393
vn 0.490365 0.861556 0.131393
vn 0.490365 0.861556 -0.131393
vn 0.490365 0.861556 -0.131393
vn 0.181553 0.966477 -0.181553
vn 0.181553 0.966477 -0.181553
vn 0.066453 0.966477 -0.248006
vn 0.066453 0.966477 -0.248006
vn -0.066453 0.966477 -0.248006
vn -0.066453 0.966477 -0.248006
vn -0.181553 0.966477 -0.181553
vn -0.181553 0.966477 -0.181553
vn -0.248006 0.966477 -0.066453
vn -0.248006 0.966477 -0.066453
vn -0.248006 0.966477 0.066453
vn -0.248006 0.966477 0.066453
vn -0.181553 0.966477 0.181553
vn -0.181553 0.966477 0.181553
vn -0.066453 0.966477 0.248006
vn -0.066453 0.966477 0.248006
vn 0.066453 0.966477 0.248006
vn 0.066453 0.966477 0.248006
vn 0.181553 0.966477 0.181553
vn 0.181553 0.966477 0.181553
vn 0.248006 0.966477 0.066453
vn 0.248006 0.966477 0.066453
vn 0.248006 0.966477 -0.066453
vn 0.248006 0.966477 -0.066453
vn 0.464351 0.754161 -0.464348
vn 0.464351 0.754161 -0.464348
vn 0.464351 0.754161 -0.464348
vn 0.169965 0.754159 -0.634315
vn 0.169965 0.754159 -0.634315
vn 0.169965 0.754159 -0.634315
vn -0.169965 0.754159 -0.634315
vn -0.169965 0.754159 -0.634315
vn -0.169965 0.754159 -0.634315
vn -0.464351 0.754160 -0.464351
vn -0.464351 0.754160 -0.464351
vn -0.464350 0.754160 -0.464351
vn -0.634315 0.754160 -0.169961
vn -0.634315 0.754160 -0.169961
vn -0.634315 0.754160 -0.169961
vn -0.634315 0.754160 0.169961
vn -0.634315 0.754160 0.169961
vn -0.634315 0.754160 0.169961
vn -0.464351 0.754161 0.464348
vn -0.464351 0.754161 0.464348
vn -0.464351 0.754161 0.464348
vn -0.169965 0.754159 0.634315
vn -0.169965 0.754159 0.634315
vn -0.169965 0.754159 0.634315
vn 0.169965 0.754159 0.634315
vn 0.169965 0.754159 0.634315
vn 0.169965 0.754159 0.634315
vn 0.464351 0.754160 0.464351
vn 0.464351 0.754160 0.464351
vn 0.464350 0.754160 0.464351
vn 0.634315 0.754160 0.169961
vn 0.634315 0.754160 0.169961
vn 0.634315 0.754160 0.169961
vn 0.634315 0.754160 -0.169961
vn 0.634315 0.754160 -0.169961
vn 0.634315 0.754160 -0.169961
vn 0.000000 -1.000000 0.000000
vn 0.000000 -1.000000 0.000000
vn 0.000000 -1.000000 0.000000
vn 0.000000 -1.000000 -0.000000
vn 0.000000 -1.000000 0.000000
vn 0.000000 -1.000000 -0.000000
vn 0.000000 -1.000000 -0.000000
vn 0.000000 -1.000000 -0.000000
vn 0.000000 -1.000000 0.000000
vn 0.000000 -1.000000 0.000000
vn 0.000000 -1.000000 0.000000
vn 0.000000 -1.000000 0.000000
vn 0.000000 -1.000000 0.000000
vn 0.705467 0.068064 -0.705467
vn 0.705467 0.068064 -0.705467
vn 0.687338 0.234805 -0.687338
vn 0.687338 0.234805 -0.687338
vn 0.258219 0.068064 -0.963686
vn 0.258219 0.068064 -0.963686
vn 0.251584 0.234805 -0.938921
vn 0.251584 0.234805 -0.938921
vn -0.258219 0.068064 -0.963686
vn -0.258219 0.068064 -0.963686
vn -0.251584 0.234805 -0.938921
vn -0.251584 0.234805 -0.938921
vn -0.705467 0.068064 -0.705467
vn -0.705467 0.068064 -0.705467
vn -0.687338 0.234805 -0.687338
vn -0.687338 0.234805 -0.687338
vn -0.963686 0.068064 -0.258219
vn -0.963686 0.068064 -0.258219
vn -0.938921 0.234805 -0.251584
vn -0.938921 0.234805 -0.251584
vn -0.459277 -0.879728 0.123061
vn -0.459277 -0.879728 0.123061
vn -0.459277 -0.879728 0.123061
vn -0.459277 -0.879728 0.123061
vn -0.705467 0.068064 0.705467
vn -0.705467 0.068064 0.705467
vn -0.687338 0.234805 0.687338
vn -0.687338 0.234805 0.687338
vn -0.258219 0.068064 0.963686
vn -0.258219 0.068064 0.963686
vn -0.251584 0.234805 0.938921
vn -0.251584 0.234805 0.938921
vn 0.258219 0.068064 0.963686
vn 0.258219 0.068064 0.963686
vn 0.251584 0.234805 0.938921
vn 0.251584 0.234805 0.938921
vn 0.705467 0.068064 0.705467
vn 0.705467 0.068064 0.705467
vn 0.687338 0.234805 0.687338
vn 0.687338 0.234805 0.687338
vn 0.559720 -0.814997 0.149977
vn 0.559720 -0.814998 0.149977
vn 0.559720 -0.814998 0.149977
vn 0.559720 -0.814998 0.149977
vn 0.963686 0.068064 -0.258219
vn 0.963686 0.068064 -0.258219
vn 0.938921 0.234805 -0.251583
vn 0.938921 0.234805 -0.251583
vn 0.706996 0.017703 -0.706996
vn 0.706996 0.017703 -0.706996
vn 0.258778 0.017703 -0.965774
vn 0.258778 0.017703 -0.965774
vn -0.258778 0.017703 -0.965775
vn -0.258778 0.017703 -0.965775
vn -0.706996 0.017703 -0.706996
vn -0.706996 0.017703 -0.706996
vn -0.965775 0.017703 -0.258778
vn -0.965775 0.017703 -0.258778
vn -0.965775 0.017703 0.258778
vn -0.965775 0.017703 0.258778
vn -0.965775 0.017703 0.258778
vn -0.965775 0.017703 0.258778
vn -0.706996 0.017703 0.706996
vn -0.706996 0.017703 0.706996
vn -0.258778 0.017703 0.965774
vn -0.258778 0.017703 0.965774
vn 0.258778 0.017703 0.965775
vn 0.258778 0.017703 0.965775
vn 0.706996 0.017703 0.706996
vn 0.706996 0.017703 0.706996
vn 0.965775 0.017703 0.258778
vn 0.965775 0.017703 0.258778
vn 0.965775 0.017703 0.258778
vn 0.965775 0.017703 0.258778
vn 0.965775 0.017703 -0.258778
vn 0.965775 0.017703 -0.258778
vn -0.420160 -0.885894 0.196616
vn -0.479726 -0.853652 0.202833
vn -0.452260 -0.871086 0.191496
vn -0.427245 -0.883908 0.190180
vn -0.055289 0.221984 0.973481
vn 0.142613 0.207753 0.967729
vn 0.432156 0.192658 0.880979
vn 0.393317 0.189975 0.899562
vn 0.568869 0.791939 -0.221859
vn 0.503987 0.836150 -0.216450
vn 0.250838 0.956518 -0.148837
vn 0.216160 0.966891 -0.135631
vn -0.073775 -0.107884 -0.991422
vn 0.109786 -0.124063 -0.986182
vn -0.356286 -0.083999 -0.930594
vn -0.402755 -0.084602 -0.911390
vn 0.600057 -0.772880 0.206368
vn 0.575762 -0.787241 0.220794
vn 0.316027 -0.928452 0.195204
vn 0.357840 -0.911110 0.204521
vn -0.190957 -0.083444 -0.978045
vn -0.275661 -0.120458 -0.953677
vn -0.112042 -0.203167 -0.972713
vn -0.121480 -0.201445 -0.971938
vn -0.474913 0.855785 -0.205157
vn -0.657673 0.720756 -0.219040
vn 0.102754 0.990738 -0.088773
vn 0.220056 0.973940 -0.054931
vn 0.230039 0.214275 0.949299
vn 0.110254 0.171933 0.978919
vn 0.108156 0.318890 0.941600
vn 0.091450 0.324375 0.941498
vn 0.650695 -0.739051 0.174357
vn 0.650695 -0.739051 0.174357
vn 0.000000 0.000000 -1.000000
vn 0.000000 0.000000 -1.000000
vn -0.824690 0.520630 -0.220976
vn -0.824690 0.520630 -0.220976
vn -0.108594 0.088900 0.990103
vn -0.108594 0.088900 0.990103
vn -0.214152 0.405507 0.888652
vn -0.214152 0.405507 0.888652
vn 0.337754 0.941041 -0.019084
vn 0.337754 0.941041 -0.019084
vn 0.263899 -0.255065 -0.930215
vn 0.263899 -0.255065 -0.930215
vn 0.121078 -0.981475 0.148485
vn 0.121078 -0.981475 0.148485
vn -0.659106 -0.720193 0.216566
vn -0.659106 -0.720193 0.216566
vn -0.408622 0.225129 0.884503
vn -0.408622 0.225129 0.884503
vn 0.720399 0.654510 -0.229438
vn 0.720399 0.654510 -0.229438
vn 0.470601 -0.143687 -0.870568
vn 0.470601 -0.143687 -0.870568
vn -0.444860 -0.082493 -0.891793
vn -0.382562 -0.078601 -0.920581
vn -0.224116 0.973988 0.033457
vn -0.241543 0.969556 0.040233
vn 0.398413 0.225048 0.889168
vn 0.462862 0.210140 0.861162
vn -0.589978 -0.786805 0.181285
vn -0.589111 -0.787326 0.181841
vn -0.120227 -0.059677 -0.990951
vn -0.120227 -0.059677 -0.990951
vn -0.432644 0.894079 0.115940
vn -0.432644 0.894079 0.115940
vn 0.113972 0.273614 0.955063
vn 0.113972 0.273614 0.955063
vn -0.615114 -0.771019 0.164819
vn -0.615113 -0.771019 0.164819
s 1
g pSphere1
usemtl initialShadingGroup
f 2/2/1 14/15/2 13/14/3 1/1/4
s 2
f 3/3/5 15/16/6 14/15/7 2/2/8
s 3
f 4/4/9 16/17/10 15/16/11 3/3/12
s 4
f 5/5/13 17/18/14 16/17/15 4/4/16
s 5
f 6/6/17 18/19/18 17/18/19 5/5/20
s 6
f 7/7/21 19/20/22 18/19/23 6/6/24
s 7
f 8/8/25 20/21/26 19/20/27 7/7/28
s 8
f 9/9/29 21/22/30 20/21/31 8/8/32
s 9
f 10/10/33 22/23/34 21/22/35 9/9/36
s 10
f 11/11/37 23/24/38 22/23/39 10/10/40
s 11
f 12/12/41 24/25/42 23/24/43 11/11/44
s 12
f 1/13/45 13/26/46 24/25/47 12/12/48
s 1
f 14/15/2 26/28/49 25/27/50 13/14/3
s 2
f 15/16/6 27/29/51 26/28/52 14/15/7
s 3
f 16/17/10 28/30/53 27/29/54 15/16/11
s 4
f 17/18/14 29/31/55 28/30/56 16/17/15
s 5
f 18/19/18 30/32/57 29/31/58 17/18/19
s 6
f 19/20/22 31/33/59 30/32/60 18/19/23
s 7
f 20/21/26 32/34/61 31/33/62 19/20/27
s 8
f 21/22/30 33/35/63 32/34/64 20/21/31
s 9
f 22/23/34 34/36/65 33/35/66 21/22/35
s 10
f 23/24/38 35/37/67 34/36/68 22/23/39
s 11
f 24/25/42 36/38/69 35/37/70 23/24/43
s 12
f 13/26/46 25/39/71 36/38/72 24/25/47
s 1
f 26/28/49 38/41/73 37/40/74 25/27/50
s 2
f 27/29/51 39/42/75 38/41/76 26/28/52
s 3
f 28/30/53 40/43/77 39/42/78 27/29/54
s 4
f 29/31/55 41/44/79 40/43/80 28/30/56
s 5
f 30/32/57 42/45/81 41/44/82 29/31/58
s 6
f 31/33/59 43/46/83 42/45/84 30/32/60
s 7
f 32/34/61 44/47/85 43/46/86 31/33/62
s 8
f 33/35/63 45/48/87 44/47/88 32/34/64
s 9
f 34/36/65 46/49/89 45/48/90 33/35/66
s 10
f 35/37/67 47/50/91 46/49/92 34/36/68
s 11
f 36/38/69 48/51/93 47/50/94 35/37/70
s 12
f 25/39/71 37/52/95 48/51/96 36/38/72
s off
f 50/66/97 51/67/98 52/53/99
f 51/67/100 53/68/101 52/54/102
f 53/68/103 54/69/104 52/55/105
f 54/69/106 55/70/107 52/56/108
f 55/70/109 56/71/110 52/57/111
f 56/71/112 57/72/113 52/58/114
f 57/72/115 58/73/116 52/59/117
f 58/73/118 59/74/119 52/60/120
f 59/74/121 60/75/122 52/61/123
f 60/75/124 61/76/125 52/62/126
f 61/76/127 62/77/128 52/63/129
f 62/77/130 50/78/131 52/64/132
s 13
f 12/12/133 49/65/134 1/13/135
f 1/13/135 49/65/134 2/2/136
f 2/2/136 49/65/134 3/3/137
f 6/6/138 5/5/139 49/65/134
f 5/5/139 4/4/140 49/65/134
f 49/65/134 4/4/140 3/3/137
f 6/6/138 49/65/134 7/7/141
f 12/12/133 11/11/142 49/65/134
f 11/11/142 10/10/143 49/65/134
f 10/10/143 9/9/144 49/65/134
f 9/9/144 8/8/145 49/65/134
f 49/65/134 8/8/145 7/7/141
s 15
f 63/80/146 64/81/147 51/67/148 50/66/149
s 16
f 64/81/150 65/82/151 53/68/152 51/67/153
s 17
f 65/82/154 66/83/155 54/69/156 53/68/157
s 18
f 66/83/158 67/84/159 55/70/160 54/69/161
s 19
f 67/84/162 68/85/163 56/71/164 55/70/165
s off
f 75/92/166 76/93/167 77/94/168 78/95/169
s 20
f 69/86/170 70/87/171 58/73/172 57/72/173
s 21
f 70/87/174 71/88/175 59/74/176 58/73/177
s 22
f 71/88/178 72/89/179 60/75/180 59/74/181
s 23
f 72/89/182 73/90/183 61/76/184 60/75/185
s off
f 79/96/186 80/97/187 81/98/188 82/99/189
s 24
f 74/91/190 63/79/191 50/78/192 62/77/193
s 15
f 37/40/194 38/41/195 64/81/147 63/80/146
s 16
f 38/41/196 39/42/197 65/82/151 64/81/150
s 17
f 39/42/198 40/43/199 66/83/155 65/82/154
s 18
f 40/43/200 41/44/201 67/84/159 66/83/158
s 19
f 41/44/202 42/45/203 68/85/163 67/84/162
s off
f 42/45/204 43/46/205 69/86/206 68/85/207
s 20
f 43/46/208 44/47/209 70/87/171 69/86/170
s 21
f 44/47/210 45/48/211 71/88/175 70/87/174
s 22
f 45/48/212 46/49/213 72/89/179 71/88/178
s 23
f 46/49/214 47/50/215 73/90/183 72/89/182
s off
f 47/50/216 48/51/217 74/91/218 73/90/219
s 24
f 48/51/220 37/52/221 63/79/191 74/91/190
s 25
f 91/108/222 92/109/223 98/115/224 95/112/225
s 26
f 92/109/226 93/110/227 97/114/228 98/115/229
s 27
f 93/110/230 94/111/231 96/113/232 97/114/233
s 28
f 94/111/234 91/108/235 95/112/236 96/113/237
s 29
f 83/100/238 84/101/239 90/107/240 87/104/241
s 30
f 84/101/242 85/102/243 89/106/244 90/107/245
s 31
f 85/102/246 86/103/247 88/105/248 89/106/249
s 32
f 86/103/250 83/100/251 87/104/252 88/105/253
s 29
f 73/90/254 74/91/255 84/101/239 83/100/238
s 30
f 74/91/256 62/77/257 85/102/243 84/101/242
s 31
f 62/77/258 61/76/259 86/103/247 85/102/246
s 32
f 61/76/260 73/90/261 83/100/251 86/103/250
f 88/105/253 87/104/252 79/96/262 82/99/263
s 31
f 89/106/249 88/105/248 82/99/264 81/98/265
s 30
f 90/107/245 89/106/244 81/98/266 80/97/267
s 29
f 87/104/241 90/107/240 80/97/268 79/96/269
s 25
f 68/85/270 69/86/271 92/109/223 91/108/222
s 26
f 69/86/272 57/72/273 93/110/227 92/109/226
s 27
f 57/72/274 56/71/275 94/111/231 93/110/230
s 28
f 56/71/276 68/85/277 91/108/235 94/111/234
f 96/113/237 95/112/236 99/116/278 100/117/279
s 27
f 97/114/233 96/113/232 100/117/280 101/118/281
s 26
f 98/115/229 97/114/228 101/118/282 102/119/283
s 25
f 95/112/225 98/115/224 102/119/284 99/116/285
s 28
f 100/117/279 99/116/278 75/92/286 78/95/287
s 27
f 101/118/281 100/117/280 78/95/288 77/94/289
s 26
f 102/119/283 101/118/282 77/94/290 76/93/291
s 25
f 99/116/285 102/119/284 76/93/292 75/92/293
