# This file uses centimeters as units for non-parametric coordinates.

mtllib Farm_tile.mtl
g default
v -3.078100 -0.326712 3.078100
v 3.078100 -0.326712 3.078100
v -3.078100 0.326712 3.078100
v 3.078100 0.326712 3.078100
v -3.078100 0.326712 2.308575
v 3.078100 0.326712 2.308575
v -3.078100 0.326712 1.539050
v 3.078100 0.326712 1.539050
v -3.078100 0.326712 0.769525
v 3.078100 0.326712 0.769525
v -3.078100 0.326712 0.000000
v 3.078100 0.326712 0.000000
v -3.078100 0.326712 -0.769525
v 3.078100 0.326712 -0.769525
v -3.078100 0.326712 -1.539050
v 3.078100 0.326712 -1.539050
v -3.078100 0.326712 -2.308575
v 3.078100 0.326712 -2.308575
v -3.078100 0.326712 -3.078100
v 3.078100 0.326712 -3.078100
v -3.032979 -0.320066 -3.072460
v 3.032979 -0.320066 -3.072460
v -3.032979 -0.320066 -2.314216
v 3.032979 -0.320066 -2.314216
v -3.078100 -0.326712 -1.539050
v 3.078100 -0.326712 -1.539050
v -3.078100 -0.326712 -0.769525
v 3.078100 -0.326712 -0.769525
v -3.078100 -0.326712 0.000000
v 3.078100 -0.326712 0.000000
v -3.078100 -0.326712 0.769525
v 3.078100 -0.326712 0.769525
v -3.078100 -0.326712 1.539050
v 3.078100 -0.326712 1.539050
v -3.078100 -0.326712 2.308575
v 3.078100 -0.326712 2.308575
v -2.820157 0.573107 2.989650
v 2.820157 0.573107 2.989650
v 2.820157 0.573107 2.397026
v -2.820157 0.573107 2.397026
v -2.823638 0.580689 2.239701
v 2.823638 0.580689 2.239701
v 2.823638 0.580689 1.607924
v -2.823638 0.580689 1.607924
v -2.824735 0.575148 1.478081
v 2.824735 0.575148 1.478081
v 2.824735 0.575148 0.830494
v -2.824735 0.575148 0.830494
v -2.842273 0.566054 0.704461
v 2.842273 0.566054 0.704461
v 2.842273 0.566054 0.065064
v -2.842273 0.566054 0.065064
v -2.837176 0.566778 -0.057655
v 2.837176 0.566778 -0.057655
v 2.837176 0.566778 -0.711870
v -2.837176 0.566778 -0.711870
v -2.822832 0.570976 -0.828762
v 2.822832 0.570976 -0.828762
v 2.822832 0.570976 -1.479813
v -2.822832 0.570976 -1.479813
v -2.845768 0.571148 -1.597798
v 2.845768 0.571148 -1.597798
v 2.845768 0.571148 -2.249827
v -2.845768 0.571148 -2.249827
v -2.848628 0.573396 -2.353174
v 2.848628 0.573396 -2.353174
v 2.848628 0.573396 -3.033502
v -2.848628 0.573396 -3.033502
vt 0.375000 0.000000
vt 0.625000 0.000000
vt 0.375000 0.250000
vt 0.625000 0.250000
vt 0.375000 0.281250
vt 0.625000 0.281250
vt 0.375000 0.312500
vt 0.625000 0.312500
vt 0.375000 0.343750
vt 0.625000 0.343750
vt 0.375000 0.375000
vt 0.625000 0.375000
vt 0.375000 0.406250
vt 0.625000 0.406250
vt 0.375000 0.437500
vt 0.625000 0.437500
vt 0.375000 0.468750
vt 0.625000 0.468750
vt 0.375000 0.500000
vt 0.625000 0.500000
vt 0.375000 0.750000
vt 0.625000 0.750000
vt 0.375000 0.781250
vt 0.625000 0.781250
vt 0.375000 0.812500
vt 0.625000 0.812500
vt 0.375000 0.843750
vt 0.625000 0.843750
vt 0.375000 0.875000
vt 0.625000 0.875000
vt 0.375000 0.906250
vt 0.625000 0.906250
vt 0.375000 0.937500
vt 0.625000 0.937500
vt 0.375000 0.968750
vt 0.625000 0.968750
vt 0.375000 1.000000
vt 0.625000 1.000000
vt 0.875000 0.000000
vt 0.843750 0.000000
vt 0.812500 0.000000
vt 0.781250 0.000000
vt 0.750000 0.000000
vt 0.718750 0.000000
vt 0.687500 0.000000
vt 0.656250 0.000000
vt 0.875000 0.250000
vt 0.843750 0.250000
vt 0.812500 0.250000
vt 0.781250 0.250000
vt 0.750000 0.250000
vt 0.718750 0.250000
vt 0.687500 0.250000
vt 0.656250 0.250000
vt 0.125000 0.000000
vt 0.156250 0.000000
vt 0.187500 0.000000
vt 0.218750 0.000000
vt 0.250000 0.000000
vt 0.281250 0.000000
vt 0.312500 0.000000
vt 0.343750 0.000000
vt 0.125000 0.250000
vt 0.156250 0.250000
vt 0.187500 0.250000
vt 0.218750 0.250000
vt 0.250000 0.250000
vt 0.281250 0.250000
vt 0.312500 0.250000
vt 0.343750 0.250000
vt 0.375000 0.250000
vt 0.625000 0.250000
vt 0.625000 0.281250
vt 0.375000 0.281250
vt 0.375000 0.281250
vt 0.625000 0.281250
vt 0.625000 0.312500
vt 0.375000 0.312500
vt 0.375000 0.312500
vt 0.625000 0.312500
vt 0.625000 0.343750
vt 0.375000 0.343750
vt 0.375000 0.343750
vt 0.625000 0.343750
vt 0.625000 0.375000
vt 0.375000 0.375000
vt 0.375000 0.375000
vt 0.625000 0.375000
vt 0.625000 0.406250
vt 0.375000 0.406250
vt 0.375000 0.406250
vt 0.625000 0.406250
vt 0.625000 0.437500
vt 0.375000 0.437500
vt 0.375000 0.437500
vt 0.625000 0.437500
vt 0.625000 0.468750
vt 0.375000 0.468750
vt 0.375000 0.468750
vt 0.625000 0.468750
vt 0.625000 0.500000
vt 0.375000 0.500000
vn 0.000000 0.000000 1.000000
vn 0.000000 0.000000 1.000000
vn 0.000000 0.000000 1.000000
vn 0.000000 0.000000 1.000000
vn 0.000000 1.000000 0.000000
vn 0.000000 1.000000 0.000000
vn 0.000000 1.000000 0.000000
vn 0.000000 1.000000 0.000000
vn 0.000000 1.000000 0.000000
vn 0.000000 1.000000 0.000000
vn 0.000000 1.000000 0.000000
vn 0.000000 1.000000 0.000000
vn 0.000000 1.000000 0.000000
vn 0.000000 1.000000 0.000000
vn 0.000000 1.000000 0.000000
vn 0.000000 1.000000 0.000000
vn 0.000000 1.000000 0.000000
vn 0.000000 1.000000 0.000000
vn 0.000000 1.000000 0.000000
vn 0.000000 1.000000 0.000000
vn 0.000000 1.000000 0.000000
vn 0.000000 1.000000 0.000000
vn 0.000000 1.000000 0.000000
vn 0.000000 1.000000 0.000000
vn 0.000000 1.000000 0.000000
vn 0.000000 1.000000 0.000000
vn 0.000000 1.000000 0.000000
vn 0.000000 1.000000 0.000000
vn 0.000000 1.000000 0.000000
vn 0.000000 1.000000 0.000000
vn 0.000000 1.000000 0.000000
vn 0.000000 1.000000 0.000000
vn 0.000000 1.000000 0.000000
vn 0.000000 1.000000 0.000000
vn 0.000000 1.000000 0.000000
vn 0.000000 1.000000 0.000000
vn 0.000000 -0.008720 -0.999962
vn 0.000000 -0.008720 -0.999962
vn 0.000000 -0.008720 -0.999962
vn 0.000000 -0.008720 -0.999962
vn 0.000000 -1.000000 0.000000
vn 0.000000 -1.000000 0.000000
vn 0.000000 -0.999990 -0.004428
vn 0.000000 -0.999990 -0.004428
vn 0.000000 -0.999991 -0.004206
vn 0.000000 -0.999991 -0.004206
vn 0.000000 -1.000000 0.000000
vn 0.000000 -1.000000 0.000000
vn 0.000000 -1.000000 0.000000
vn 0.000000 -1.000000 0.000000
vn 0.000000 -1.000000 0.000000
vn 0.000000 -1.000000 0.000000
vn 0.000000 -1.000000 0.000000
vn 0.000000 -1.000000 0.000000
vn 0.000000 -1.000000 0.000000
vn 0.000000 -1.000000 0.000000
vn 0.000000 -1.000000 0.000000
vn 0.000000 -1.000000 0.000000
vn 0.998557 -0.051526 -0.015132
vn 0.997575 -0.069594 0.000000
vn 0.997575 -0.069594 0.000000
vn 0.998541 -0.051941 -0.014785
vn 0.999757 -0.016817 -0.014280
vn 0.999743 -0.017271 -0.014665
vn 1.000000 0.000000 0.000000
vn 1.000000 0.000000 0.000000
vn 1.000000 0.000000 0.000000
vn 1.000000 0.000000 0.000000
vn 1.000000 0.000000 0.000000
vn 1.000000 0.000000 0.000000
vn 1.000000 0.000000 0.000000
vn 1.000000 0.000000 0.000000
vn 1.000000 0.000000 0.000000
vn 1.000000 0.000000 0.000000
vn 1.000000 0.000000 0.000000
vn 1.000000 0.000000 0.000000
vn -0.997575 -0.069594 0.000000
vn -0.998557 -0.051526 -0.015132
vn -0.998541 -0.051941 -0.014785
vn -0.997575 -0.069594 0.000000
vn -0.999757 -0.016817 -0.014280
vn -0.999743 -0.017271 -0.014665
vn -1.000000 0.000000 0.000000
vn -1.000000 0.000000 0.000000
vn -1.000000 -0.000000 0.000000
vn -1.000000 -0.000000 0.000000
vn -1.000000 -0.000000 0.000000
vn -1.000000 -0.000000 0.000000
vn -1.000000 0.000000 0.000000
vn -1.000000 0.000000 0.000000
vn -1.000000 0.000000 0.000000
vn -1.000000 0.000000 0.000000
vn -1.000000 0.000000 0.000000
vn -1.000000 0.000000 0.000000
vn 0.000000 0.337868 0.941194
vn 0.000000 0.337868 0.941194
vn 0.000000 0.337868 0.941194
vn 0.000000 0.337868 0.941194
vn 0.690734 0.723109 0.000000
vn 0.690734 0.723109 0.000000
vn 0.690734 0.723109 0.000000
vn 0.690734 0.723109 0.000000
vn 0.000000 0.337868 -0.941194
vn 0.000000 0.337868 -0.941194
vn 0.000000 0.337868 -0.941194
vn 0.000000 0.337868 -0.941194
vn -0.690734 0.723109 0.000000
vn -0.690734 0.723109 0.000000
vn -0.690734 0.723109 0.000000
vn -0.690734 0.723109 0.000000
vn 0.000000 0.261730 0.965141
vn 0.000000 0.261730 0.965141
vn 0.000000 0.261730 0.965141
vn 0.000000 0.261730 0.965141
vn 0.706432 0.707781 0.000000
vn 0.706432 0.707781 0.000000
vn 0.706432 0.707781 0.000000
vn 0.706432 0.707781 0.000000
vn 0.000000 0.261729 -0.965141
vn 0.000000 0.261729 -0.965141
vn 0.000000 0.261729 -0.965141
vn 0.000000 0.261729 -0.965141
vn -0.706432 0.707781 0.000000
vn -0.706432 0.707781 0.000000
vn -0.706432 0.707781 0.000000
vn -0.706432 0.707781 0.000000
vn 0.000000 0.238340 0.971182
vn 0.000000 0.238340 0.971182
vn 0.000000 0.238340 0.971182
vn 0.000000 0.238340 0.971182
vn 0.700127 0.714018 0.000000
vn 0.700127 0.714018 0.000000
vn 0.700127 0.714018 0.000000
vn 0.700127 0.714018 0.000000
vn 0.000000 0.238340 -0.971182
vn 0.000000 0.238340 -0.971182
vn 0.000000 0.238340 -0.971182
vn 0.000000 0.238340 -0.971182
vn -0.700127 0.714018 0.000000
vn -0.700127 0.714018 0.000000
vn -0.700127 0.714018 0.000000
vn -0.700127 0.714018 0.000000
vn 0.000000 0.262325 0.964980
vn 0.000000 0.262325 0.964980
vn 0.000000 0.262325 0.964980
vn 0.000000 0.262325 0.964980
vn 0.712317 0.701858 0.000000
vn 0.712317 0.701858 0.000000
vn 0.712317 0.701858 0.000000
vn 0.712317 0.701858 0.000000
vn 0.000000 0.262325 -0.964980
vn 0.000000 0.262325 -0.964980
vn 0.000000 0.262325 -0.964980
vn 0.000000 0.262325 -0.964980
vn -0.712317 0.701858 0.000000
vn -0.712317 0.701858 0.000000
vn -0.712317 0.701858 0.000000
vn -0.712317 0.701858 0.000000
vn 0.000000 0.233525 0.972351
vn 0.000000 0.233525 0.972351
vn 0.000000 0.233525 0.972351
vn 0.000000 0.233525 0.972351
vn 0.705843 0.708368 0.000000
vn 0.705843 0.708368 0.000000
vn 0.705843 0.708368 0.000000
vn 0.705843 0.708368 0.000000
vn 0.000000 0.233525 -0.972351
vn 0.000000 0.233525 -0.972351
vn 0.000000 0.233525 -0.972351
vn 0.000000 0.233525 -0.972351
vn -0.705843 0.708368 0.000000
vn -0.705843 0.708368 0.000000
vn -0.705843 0.708368 0.000000
vn -0.705843 0.708368 0.000000
vn 0.000000 0.235682 0.971830
vn 0.000000 0.235682 0.971830
vn 0.000000 0.235682 0.971830
vn 0.000000 0.235682 0.971830
vn 0.691362 0.722509 0.000000
vn 0.691362 0.722509 0.000000
vn 0.691362 0.722509 0.000000
vn 0.691362 0.722509 0.000000
vn 0.000000 0.235683 -0.971830
vn 0.000000 0.235683 -0.971830
vn 0.000000 0.235683 -0.971830
vn 0.000000 0.235683 -0.971830
vn -0.691362 0.722509 0.000000
vn -0.691362 0.722509 0.000000
vn -0.691362 0.722509 0.000000
vn -0.691362 0.722509 0.000000
vn 0.000000 0.233687 0.972312
vn 0.000000 0.233687 0.972312
vn 0.000000 0.233687 0.972312
vn 0.000000 0.233687 0.972312
vn 0.724824 0.688934 0.000000
vn 0.724824 0.688934 0.000000
vn 0.724824 0.688934 0.000000
vn 0.724824 0.688934 0.000000
vn 0.000000 0.233687 -0.972312
vn 0.000000 0.233687 -0.972312
vn 0.000000 0.233687 -0.972312
vn 0.000000 0.233687 -0.972312
vn -0.724824 0.688934 0.000000
vn -0.724824 0.688934 0.000000
vn -0.724824 0.688934 0.000000
vn -0.724824 0.688934 0.000000
vn 0.000000 0.177907 0.984047
vn 0.000000 0.177907 0.984047
vn 0.000000 0.177907 0.984047
vn 0.000000 0.177907 0.984047
vn 0.732188 0.681103 0.000000
vn 0.732188 0.681103 0.000000
vn 0.732188 0.681103 0.000000
vn 0.732188 0.681103 0.000000
vn 0.000000 0.177907 -0.984047
vn 0.000000 0.177907 -0.984047
vn 0.000000 0.177907 -0.984047
vn 0.000000 0.177907 -0.984047
vn -0.732188 0.681103 0.000000
vn -0.732188 0.681103 0.000000
vn -0.732188 0.681103 0.000000
vn -0.732188 0.681103 0.000000
s off
g pCube1
usemtl initialShadingGroup
f 1/1/1 2/2/2 4/4/3 3/3/4
f 37/71/5 38/72/6 39/73/7 40/74/8
f 41/75/9 42/76/10 43/77/11 44/78/12
f 45/79/13 46/80/14 47/81/15 48/82/16
f 49/83/17 50/84/18 51/85/19 52/86/20
f 53/87/21 54/88/22 55/89/23 56/90/24
f 57/91/25 58/92/26 59/93/27 60/94/28
f 61/95/29 62/96/30 63/97/31 64/98/32
f 65/99/33 66/100/34 67/101/35 68/102/36
f 19/19/37 20/20/38 22/22/39 21/21/40
s 1
f 21/21/41 22/22/42 24/24/43 23/23/44
f 23/23/44 24/24/43 26/26/45 25/25/46
f 25/25/46 26/26/45 28/28/47 27/27/48
f 27/27/48 28/28/47 30/30/49 29/29/50
f 29/29/50 30/30/49 32/32/51 31/31/52
f 31/31/52 32/32/51 34/34/53 33/33/54
f 33/33/54 34/34/53 36/36/55 35/35/56
f 35/35/56 36/36/55 2/38/57 1/37/58
s 2
f 24/40/59 22/39/60 20/47/61 18/48/62
f 26/41/63 24/40/59 18/48/62 16/49/64
f 28/42/65 26/41/63 16/49/64 14/50/66
f 30/43/67 28/42/65 14/50/66 12/51/68
f 32/44/69 30/43/67 12/51/68 10/52/70
f 34/45/71 32/44/69 10/52/70 8/53/72
f 36/46/73 34/45/71 8/53/72 6/54/74
f 2/2/75 36/46/73 6/54/74 4/4/76
s 3
f 21/55/77 23/56/78 17/64/79 19/63/80
f 23/56/78 25/57/81 15/65/82 17/64/79
f 25/57/81 27/58/83 13/66/84 15/65/82
f 27/58/83 29/59/85 11/67/86 13/66/84
f 29/59/85 31/60/87 9/68/88 11/67/86
f 31/60/87 33/61/89 7/69/90 9/68/88
f 33/61/89 35/62/91 5/70/92 7/69/90
f 35/62/91 1/1/93 3/3/94 5/70/92
s off
f 3/3/95 4/4/96 38/72/97 37/71/98
f 4/4/99 6/6/100 39/73/101 38/72/102
f 6/6/103 5/5/104 40/74/105 39/73/106
f 5/5/107 3/3/108 37/71/109 40/74/110
f 5/5/111 6/6/112 42/76/113 41/75/114
f 6/6/115 8/8/116 43/77/117 42/76/118
f 8/8/119 7/7/120 44/78/121 43/77/122
f 7/7/123 5/5/124 41/75/125 44/78/126
f 7/7/127 8/8/128 46/80/129 45/79/130
f 8/8/131 10/10/132 47/81/133 46/80/134
f 10/10/135 9/9/136 48/82/137 47/81/138
f 9/9/139 7/7/140 45/79/141 48/82/142
f 9/9/143 10/10/144 50/84/145 49/83/146
f 10/10/147 12/12/148 51/85/149 50/84/150
f 12/12/151 11/11/152 52/86/153 51/85/154
f 11/11/155 9/9/156 49/83/157 52/86/158
f 11/11/159 12/12/160 54/88/161 53/87/162
f 12/12/163 14/14/164 55/89/165 54/88/166
f 14/14/167 13/13/168 56/90/169 55/89/170
f 13/13/171 11/11/172 53/87/173 56/90/174
f 13/13/175 14/14/176 58/92/177 57/91/178
f 14/14/179 16/16/180 59/93/181 58/92/182
f 16/16/183 15/15/184 60/94/185 59/93/186
f 15/15/187 13/13/188 57/91/189 60/94/190
f 15/15/191 16/16/192 62/96/193 61/95/194
f 16/16/195 18/18/196 63/97/197 62/96/198
f 18/18/199 17/17/200 64/98/201 63/97/202
f 17/17/203 15/15/204 61/95/205 64/98/206
f 17/17/207 18/18/208 66/100/209 65/99/210
f 18/18/211 20/20/212 67/101/213 66/100/214
f 20/20/215 19/19/216 68/102/217 67/101/218
f 19/19/219 17/17/220 65/99/221 68/102/222
